<svg xmlns="http://www.w3.org/2000/svg" width="24" height="24" fill="none"><path fill="#9ca3af" d="M18 8c1.6569 0 3-1.3431 3-3 0-1.6568-1.3431-3-3-3s-3 1.3432-3 3c0 1.6569 1.3431 3 3 3ZM6 15c1.6569 0 3-1.3431 3-3S7.6569 9 6 9s-3 1.3431-3 3 1.3431 3 3 3Zm12 7c1.6569 0 3-1.3431 3-3s-1.3431-3-3-3-3 1.3431-3 3 1.3431 3 3 3Z" opacity="0.12"></path><path stroke="#9ca3af" stroke-linecap="round" stroke-linejoin="round" stroke-width="2" d="m8.59 13.51 6.83 3.98m-.01-10.98-6.82 3.98M21 5c0 1.6569-1.3431 3-3 3s-3-1.3431-3-3c0-1.6568 1.3431-3 3-3s3 1.3432 3 3ZM9 12c0 1.6569-1.3431 3-3 3s-3-1.3431-3-3 1.3431-3 3-3 3 1.3431 3 3Zm12 7c0 1.6569-1.3431 3-3 3s-3-1.3431-3-3 1.3431-3 3-3 3 1.3431 3 3Z"></path></svg>