<svg xmlns="http://www.w3.org/2000/svg" width="24" height="24" fill="none"><path fill="#9ca3af" d="M4 6.8c0-1.6802 0-2.5202.327-3.162a3 3 0 0 1 1.311-1.311C6.2798 2 7.1198 2 8.8 2h6.4c1.6802 0 2.5202 0 3.162.327a2.9997 2.9997 0 0 1 1.311 1.311C20 4.2798 20 5.1198 20 6.8v10.4c0 1.6802 0 2.5202-.327 3.162a2.9994 2.9994 0 0 1-1.311 1.311C17.7202 22 16.8802 22 15.2 22H8.8c-1.6802 0-2.5202 0-3.162-.327a2.9997 2.9997 0 0 1-1.311-1.311C4 19.7202 4 18.8802 4 17.2V6.8Z" opacity="0.12"></path><path stroke="#9ca3af" stroke-linecap="round" stroke-linejoin="round" stroke-width="2" d="M4 6.8c0-1.6802 0-2.5202.327-3.162a3 3 0 0 1 1.311-1.311C6.2798 2 7.1198 2 8.8 2h6.4c1.6802 0 2.5202 0 3.162.327a2.9997 2.9997 0 0 1 1.311 1.311C20 4.2798 20 5.1198 20 6.8v10.4c0 1.6802 0 2.5202-.327 3.162a2.9994 2.9994 0 0 1-1.311 1.311C17.7202 22 16.8802 22 15.2 22H8.8c-1.6802 0-2.5202 0-3.162-.327a2.9997 2.9997 0 0 1-1.311-1.311C4 19.7202 4 18.8802 4 17.2V6.8Z"></path></svg>